<svg version="1.2" xmlns="http://www.w3.org/2000/svg" viewBox="0 0 1290 500" width="1290" height="500">
	<title>Logo</title>
	<style>
		.s0 { fill: #3cb14a } 
		.s1 { fill: #000000 } 
		.s2 { fill: #ffffff } 
	</style>
	<g id="Background">
		<path id="Path 0" class="s0" d="m883 27.1c-3.6 0.5-11 2.5-16.5 4.4-5.5 1.9-13.5 5.6-17.8 8.2-4.4 2.7-11.3 8-15.5 11.9-4.3 3.9-10.2 10.6-13.2 15-2.9 4.3-6.7 10.7-8.2 14.1-1.5 3.5-3.7 9.6-4.8 13.5-1.1 4-2.4 11.3-3 16.3-0.5 5-0.7 11.9-0.4 15.5l0.6 6.5c7.7-14.7 12.4-22.4 15.5-26.5 3.1-4.1 9-10.8 13.2-14.9 4.2-4.1 11.9-10.2 17.1-13.7 5.2-3.5 12.4-7.6 16-9.2 3.6-1.6 9.1-3.9 12.2-5.1 3.2-1.1 5.8-2 5.8-1.9 0 0.2-2.1 1.9-4.7 3.8-2.6 1.9-7.3 5.7-10.3 8.4-3 2.7-8.1 7.9-11.4 11.5-3.2 3.6-8 9.8-10.6 13.6-2.6 3.8-6.6 10.8-9 15.5-2.3 4.7-5.7 13-7.6 18.5-1.8 5.5-3.9 13.9-4.6 18.7l-1.3 8.8c4.3 0 10.6-0.9 16.8-1.9 6.1-1.1 15-3.2 19.7-4.6 4.7-1.5 11.6-4.3 15.5-6.3 4.6-2.3 9.4-6 14-10.6 4.4-4.4 8.4-9.7 10.7-14.1 2-3.8 6.3-14 9.6-22.5 3.2-8.5 7.6-18.9 9.7-23 2.5-4.8 6.3-9.9 10.5-14.1 3.6-3.6 8.8-7.6 11.5-8.9 2.8-1.3 7.4-2.5 10.3-2.7 2.8-0.2 5.2-0.8 5.2-1.3 0-0.6-2.8-3.1-6.3-5.6-3.4-2.5-9.8-6.3-14.2-8.5-4.4-2.1-12.5-5-18-6.4-6.1-1.6-13.9-2.7-20-3-5.5-0.2-12.9 0.1-16.5 0.6z"/>
		<path id="Path 1" class="s1" d="m15.5 121.7c-0.5 0.3-0.8 51-0.7 112.5l0.2 111.8h50v-225c-37.7 0-49 0.3-49.5 0.7zm298 253.2c-1.6 0.4-4.6 1.6-6.5 2.8-1.9 1.2-4.5 3.9-5.6 6-1.2 2.1-2.4 5.5-2.8 7.6-0.3 2-0.1 5.8 0.6 8.5 0.8 3 2.5 5.9 4.8 8.2 1.9 1.9 5.3 4.1 7.5 4.7 2.2 0.7 5.4 1.3 7 1.3 1.6 0 4.7-0.5 6.8-1 2-0.6 5.3-2.5 7.4-4.2 2-1.8 4.2-4.8 5-6.5 0.7-1.8 1.3-5.5 1.3-8.3 0-2.7-0.5-6.2-1.1-7.7-0.5-1.6-2.5-4.3-4.2-6.1-1.9-2-5.2-3.9-8.2-4.8-2.8-0.8-5.9-1.4-7-1.3-1.1 0.1-3.4 0.4-5 0.8zm948.5 0.4c-2 0.6-4.4 1.9-5.4 2.7-0.9 0.8-2.2 3.1-2.8 5-0.5 1.9-0.7 4.6-0.3 6 0.4 1.4 1.4 3.3 2.3 4.3 0.9 1 4.6 2.9 8.2 4.2 3.6 1.3 6.8 3.1 7.3 3.9 0.4 0.9 0.5 2.2 0.2 2.9-0.2 0.6-1.5 1.5-2.7 1.9-1.3 0.4-3.9 0.3-5.8-0.3-1.9-0.5-4.1-1.4-4.8-1.9-0.8-0.7-1.6-0.3-2.7 1.3-0.8 1.2-1.5 2.7-1.5 3.2 0 0.6 1.4 1.9 3.2 2.9 1.8 1 5.5 2.1 8.3 2.3 3.5 0.3 6-0.1 8.5-1.4 1.9-1 4.3-3.4 5.4-5.3 1.3-2.5 1.7-4.5 1.2-6.7-0.3-1.8-1.7-4.3-2.9-5.5-1.3-1.3-5.1-3.3-8.5-4.5-3.4-1.3-6.4-2.7-6.7-3.3-0.3-0.5-0.3-1.9 0-3 0.4-1.6 1.3-2 4.7-2 2.4 0 5.2 0.7 6.3 1.5 1.8 1.4 2.1 1.3 3.7-1.3 1-1.5 1.8-3 1.8-3.4 0-0.5-1.5-1.4-3.3-2.2-1.7-0.8-4.8-1.7-6.7-2-1.9-0.3-5.1 0-7 0.7z"/>
		<path id="Path 2" class="s2" d="m311.7 384c-1.6 1.2-3.1 3.7-3.7 6-0.6 2.6-0.7 5.3-0.1 7.8 0.6 2 1.8 4.5 2.8 5.4 1 0.9 3 2.1 4.6 2.7 1.8 0.8 4 0.8 6.7 0.1 2.9-0.7 4.6-1.9 6-4.3 1.2-1.9 2-5 2-7.5 0-2.3-0.5-5.2-1.1-6.5-0.6-1.2-2.1-3-3.3-3.9-1.3-1.1-3.9-1.8-6.7-1.8q-4.6 0-7.2 2z"/>
		<path id="Path 3" fill-rule="evenodd" class="s1" d="m464 120.4c13.3 0.3 16.8 0.7 24.5 3 4.9 1.5 13.9 5.1 20 8.1 6 2.9 12.9 7.1 19.5 13l-9.5 15c-5.2 8.2-9.6 15.4-9.8 16-0.2 0.6-2.6-0.6-5.3-2.6-2.7-2-7.4-5-10.4-6.7-3-1.7-8.2-4.1-11.5-5.2-3.8-1.4-9.7-2.4-16-2.7-7.6-0.4-11.4-0.2-15.8 1.1-3.1 0.9-7.1 2.8-8.8 4.3-1.8 1.6-4 4.5-5 6.5-1.1 2.2-1.9 5.9-1.9 8.8 0 2.7 0.7 6.5 1.6 8.2 0.9 1.8 2.6 4.1 3.8 5.1 1.1 1 4.8 3.2 8.1 4.9 3.3 1.7 14.3 5.9 24.5 9.3 10.2 3.4 21.4 7.7 25 9.5 3.6 1.8 9.8 5.6 13.9 8.4 4.1 2.8 9.7 7.6 12.4 10.6 2.8 3 6.3 8.2 7.9 11.5 1.5 3.3 3.5 9.2 4.3 13 0.8 3.9 1.5 10.4 1.5 14.5 0 4.1-0.7 10.4-1.6 14-0.8 3.6-2.9 9.4-4.7 13-2.2 4.5-5.6 9-11.2 14.6-5.8 5.9-10.1 9.1-16 12.1-4.4 2.3-11.4 5.1-15.5 6.2-4.1 1.2-12.2 2.6-18 3.1-7.1 0.7-13.8 0.7-20.5 0-5.5-0.6-12.9-1.8-16.5-2.7-3.6-0.9-9.4-2.8-13-4.2-3.6-1.5-9.4-4.3-13-6.3-3.6-2-8.9-5.4-11.7-7.7-2.9-2.3-5.6-4.7-5.9-5.4-0.3-0.6 3.1-7.8 7.5-16 4.5-8.1 8.5-14.7 9.1-14.7 0.6 0 3.1 1.6 5.8 3.6 2.6 2 8.8 5.6 13.7 8 5.6 2.7 12 5 16.8 5.9 4.2 0.8 11.2 1.5 15.5 1.5 4.2 0 10.2-0.6 13.2-1.3 3-0.7 7.2-2.3 9.2-3.7 2-1.4 4.9-4.3 6.3-6.5 1.9-3 2.5-5.3 2.5-9.3 0-2.8-0.6-6.7-1.3-8.5-0.8-1.7-3.1-4.7-5.3-6.6-2.1-1.9-7-4.9-10.9-6.7-3.9-1.7-14.4-5.5-23.5-8.4-9.1-2.9-19.9-6.8-24-8.7-4.1-1.9-10.4-5.4-14-7.8-3.6-2.3-8.6-6.5-11.1-9.1-2.5-2.7-5.8-7.4-7.4-10.4-1.5-3-3.4-8.4-4.1-12-0.8-3.6-1.4-10.1-1.4-14.5 0-4.4 0.7-11.2 1.5-15 0.8-3.8 3.1-10.4 5.1-14.5 2.7-5.5 5.7-9.5 11.3-15 4.3-4.3 10.2-8.9 13.6-10.7 3.3-1.8 8.7-4.2 12-5.3 3.3-1.2 8.9-2.8 12.5-3.5 4.5-1 11.4-1.3 22-1.1zm-333 2.6h29.5l58 60c31.9 33.1 60.8 63.1 70.6 73.5l-1.1-133.5h46v212l-28.4-0.5-54.9-57c-30.2-31.4-59.2-61.5-74.1-77l0.9 134h-46zm456.1-0.1l107.4 0.6 10 3.5c5.6 1.9 13.1 5.5 17 8.1 3.9 2.5 9.5 7.2 12.5 10.5 3 3.3 7.2 9.1 9.2 12.9 2 3.9 4.6 10.6 5.8 15 1.4 5.7 2 11.2 2 19 0 7.7-0.6 13.4-2 19-1.1 4.4-3.6 11.4-5.7 15.5-2.7 5.6-5.8 9.7-12.2 16.1-7.3 7.4-10 9.3-18.1 13.2-5.2 2.5-12.4 5.3-16 6.3-5.3 1.4-11.7 1.8-64 2.4v70h-46zm45.9 104.1c46.1-0.5 47.8-0.6 52.5-2.8 2.8-1.3 6.5-3.7 8.4-5.5 1.8-1.8 4.5-5.5 6-8.2 2.4-4.6 2.6-6 2.6-16.5 0-10.1-0.3-12-2.3-16-1.3-2.5-3.8-6-5.5-7.8-1.8-1.9-5.4-4.6-8.2-6-4.9-2.7-5.2-2.7-29.2-3l-24.2-0.3zm283.5-104.1l43.5 0.3c41.9 0.4 43.8 0.5 51 2.6 4.2 1.3 11.1 4.2 15.5 6.5 5.4 2.8 10.3 6.4 15 11.2 4.5 4.4 8.4 9.5 10.8 14 2 3.8 4.6 10.6 5.7 15 1.4 5.5 2.1 11.1 2 18 0 5.5-0.7 12.8-1.5 16.2-0.8 3.5-2.8 9.1-4.5 12.5-1.7 3.5-5 8.7-7.3 11.7-2.3 2.9-6.5 7.2-9.4 9.5-2.9 2.2-7.5 5.2-15.1 9.1l27.4 42.2c15.1 23.3 27.4 42.5 27.4 42.8 0 0.2-12 0.5-53.5 0.5l-47-75.5-37.5-0.5v76h-46l0.1-182.5 4.1-3c2.2-1.7 6.2-5.7 8.8-9 2.7-3.3 6.1-8.6 7.7-11.8zm22.5 98.1c38 0 45-0.4 49.5-1.5 3.3-0.9 8.5-3.3 11.5-5.3 3.2-2.2 6.7-5.7 8.5-8.6 2.6-4.3 3-6.1 3.3-13.5 0.3-6.5-0.1-9.7-1.4-13.1-1-2.5-3.4-6.3-5.3-8.4-2-2.1-5.8-5.1-8.6-6.5-5-2.6-5.1-2.6-31.2-2.9l-26.2-0.3zm180-98h148v38h-102v47l92.5 0.5v38l-92.5 0.5v49h104v39h-150zm-327 56h44v156h-44zm-770 196h10.3c8.5 0 10.8 0.3 13.5 2 1.8 1.1 3.9 3.6 4.8 5.7 0.9 2.2 1.4 5 1.1 6.8-0.4 1.6-1.6 4.3-2.9 5.9-1.2 1.6-3.7 3.5-5.5 4.2-1.8 0.8-5.3 1.4-12.3 1.4v12h-9zm138 0h10q10 0 13.5 1.5c2 0.8 4.2 2.8 5 4.5 0.9 1.6 1.5 4.8 1.5 7 0 3.1-0.6 4.6-6 10l3.2 5.2c1.7 2.9 3.7 6.3 4.5 7.5 1.3 2.2 1.2 2.3-8.7 2.3l-4-6.5c-3.5-5.7-4.4-6.5-10-6.5v13h-9zm288.2-0.2l23 0.7 3.4 3.7c2.8 3 3.4 4.6 3.4 8 0 2.5-0.8 5.6-2 7.5-1.1 1.8-3.5 3.9-5.5 4.8-1.9 0.8-5.7 1.5-13.5 1.5v12h-9zm137.9 0.1h27v7h-18v8l16.5 0.5v7l-16.5 0.5v8l18.5 0.5 0.5 6.5h-28zm137.1-0.1l11.4 0.3c9.6 0.3 11.7 0.6 14.1 2.4 1.6 1.2 3.4 3.8 4.1 5.8 0.9 2.6 1 4.5 0.2 6.9-0.5 1.8-2.1 4.4-5.9 8.2l4.5 6.8c2.4 3.7 4.5 7 4.5 7.2 0 0.3-2.3 0.5-10 0.5l-3.8-6.5c-3.4-5.8-4.1-6.4-10.2-6.5v13h-9zm135.8 0.2h32v7h-11v31h-9v-31h-12zm139 0h9v38h-9zm120 0h27v7h-18v8l16.5 0.5v7l-16.5 0.5v8l18.5 0.5 0.5 6.5h-28z"/>
		<path id="Path 4" class="s2" d="m31 388v6c6.7 0 8.7-0.7 10-2 1.1-1.1 2-2.9 2-4 0-1.1-0.9-2.9-2-4q-2-2-6-2h-4zm138-0.3v5.8c6.7-0.8 9.4-1.7 10.4-2.5 0.9-0.8 1.7-2.7 1.6-4.3 0-1.7-0.7-3.1-2-3.7-1.1-0.6-3.8-1-6-1h-4zm288 0.3v6c5.8 0 8.5-0.7 9.8-1.5q2.2-1.6 2.2-4.5c0-1.7-0.7-3.7-1.5-4.5-0.9-0.9-3.3-1.5-6-1.5h-4.5zm275-0.3v5.8c6.7-0.8 9.4-1.7 10.4-2.5 0.9-0.9 1.7-2.8 1.7-4.3-0.1-1.7-0.8-3.1-2.1-3.8-1.1-0.5-3.8-0.9-6-0.9h-4z"/>
	</g>
</svg>